<svg width="48" height="48" viewBox="0 0 48 48" fill="none" xmlns="http://www.w3.org/2000/svg">
<path d="M47.5 24C47.5 35.5271 39.1998 45.1164 28.25 47.1164V31.4375H33.3422H33.7713L33.8364 31.0133L34.9005 24.0758L34.9888 23.5H34.4062H28.25V19.5C28.25 18.6227 28.4656 17.8183 28.9659 17.2396C29.4545 16.6744 30.2792 16.25 31.6613 16.25H34.6875H35.1875V15.75V9.84375V9.42183L34.7716 9.35087L34.6875 9.84375C34.7716 9.35087 34.7715 9.35086 34.7715 9.35085L34.7713 9.35083L34.7708 9.35073L34.769 9.35043L34.7624 9.34932L34.7376 9.34518C34.7159 9.34161 34.6842 9.33642 34.6432 9.32987C34.5611 9.31675 34.4415 9.29813 34.29 9.27584C33.9872 9.23127 33.5565 9.17196 33.0431 9.11267C32.0183 8.99435 30.6543 8.875 29.3152 8.875C26.4731 8.875 24.0681 9.73812 22.3731 11.4347C20.6775 13.1319 19.75 15.6052 19.75 18.7125V23.5H14.1562H13.6562V24V30.9375V31.4375H14.1562H19.75V47.1164C8.80019 45.1164 0.5 35.5271 0.5 24C0.5 11.0213 11.0213 0.5 24 0.5C36.9787 0.5 47.5 11.0213 47.5 24Z" fill="white" stroke="#EFEEEB"/>
</svg>
